<svg width="209" height="37" viewBox="0 0 209 37" fill="none" xmlns="http://www.w3.org/2000/svg">
<path d="M18.5 0L22.6535 12.7832H36.0945L25.2205 20.6836L29.374 33.4668L18.5 25.5664L7.62597 33.4668L11.7795 20.6836L0.905455 12.7832H14.3465L18.5 0Z" fill="#BF0000"/>
<path d="M61.5 0L65.6535 12.7832H79.0945L68.2205 20.6836L72.374 33.4668L61.5 25.5664L50.626 33.4668L54.7795 20.6836L43.9055 12.7832H57.3465L61.5 0Z" fill="#BF0000"/>
<path d="M104.5 0L108.654 12.7832H122.095L111.221 20.6836L115.374 33.4668L104.5 25.5664L93.626 33.4668L97.7795 20.6836L86.9055 12.7832H100.346L104.5 0Z" fill="#BF0000"/>
<path d="M147.5 0L151.654 12.7832H165.095L154.221 20.6836L158.374 33.4668L147.5 25.5664L136.626 33.4668L140.779 20.6836L129.905 12.7832H143.346L147.5 0Z" fill="#BF0000"/>
<path d="M190.5 0L194.654 12.7832H208.095L197.221 20.6836L201.374 33.4668L190.5 25.5664L179.626 33.4668L183.779 20.6836L172.905 12.7832H186.346L190.5 0Z" fill="#BF0000"/>
</svg>
