<svg width="34" height="34" viewBox="0 0 34 34" fill="none" xmlns="http://www.w3.org/2000/svg">
<path d="M33.0328 15.5534C32.4709 5.96728 23.7607 -1.42065 13.7283 0.232134C6.81964 1.37255 1.28281 6.97546 0.208503 13.884C-0.419555 17.8838 0.40687 21.6687 2.2084 24.7924L0.73741 30.2631C0.406853 31.5027 1.54724 32.6266 2.7703 32.2795L8.15839 30.792C10.6045 32.2299 13.4638 33.0563 16.5215 33.0563C25.8432 33.0563 33.5782 24.842 33.0328 15.5534ZM24.6036 22.6769C24.4549 22.9744 24.2731 23.2553 24.0417 23.5198C23.6285 23.966 23.1822 24.2966 22.6864 24.4949C22.1905 24.7098 21.6451 24.809 21.0667 24.809C20.2237 24.809 19.3147 24.6108 18.3726 24.1976C17.414 23.7844 16.4719 23.2388 15.5298 22.5612C14.5712 21.867 13.6787 21.0902 12.8193 20.2473C11.9598 19.3878 11.1995 18.4788 10.5053 17.5367C9.82767 16.5946 9.28229 15.6525 8.88562 14.7104C8.48895 13.7684 8.29065 12.8594 8.29065 12C8.29065 11.438 8.3898 10.8926 8.58813 10.3967C8.78647 9.88438 9.10053 9.42161 9.54678 9.00842C10.0757 8.47953 10.6541 8.23161 11.2656 8.23161C11.497 8.23161 11.7284 8.28118 11.9432 8.38034C12.1581 8.47951 12.3565 8.62826 12.5052 8.84312L14.4225 11.5537C14.5712 11.7685 14.6869 11.9503 14.753 12.1321C14.8357 12.314 14.8687 12.4792 14.8687 12.6445C14.8687 12.8428 14.8026 13.0412 14.6869 13.2395C14.5712 13.4378 14.4225 13.6361 14.2241 13.8345L13.5961 14.4956C13.4969 14.5947 13.4638 14.6939 13.4638 14.8261C13.4638 14.8922 13.4804 14.9584 13.4969 15.0245C13.53 15.0906 13.5465 15.1402 13.563 15.1897C13.7118 15.4707 13.9762 15.8178 14.3398 16.2475C14.72 16.6773 15.1166 17.1235 15.5464 17.5532C15.9926 17.9995 16.4223 18.3961 16.8686 18.7763C17.2983 19.1399 17.6619 19.3878 17.9429 19.5366C17.9925 19.5531 18.0421 19.5862 18.0916 19.6027C18.1578 19.6357 18.2239 19.6357 18.3065 19.6357C18.4553 19.6357 18.5544 19.5862 18.6536 19.487L19.2816 18.8589C19.4965 18.6441 19.6948 18.4953 19.8766 18.3961C20.075 18.2805 20.2568 18.2143 20.4717 18.2143C20.6369 18.2143 20.8022 18.2474 20.984 18.33C21.1658 18.4127 21.3642 18.5118 21.5625 18.6606L24.3061 20.6109C24.521 20.7596 24.6697 20.9414 24.7689 21.1398C24.8515 21.3546 24.9011 21.553 24.9011 21.7844C24.8019 22.0653 24.7358 22.3794 24.6036 22.6769Z" fill="black"/>
</svg>
