<svg width="34" height="34" viewBox="0 0 34 34" fill="none" xmlns="http://www.w3.org/2000/svg">
<path d="M23.4678 0H9.60872C3.5888 0 0 3.5888 0 9.60872V23.4512C0 29.4877 3.5888 33.0765 9.60872 33.0765H23.4512C29.4711 33.0765 33.0599 29.4877 33.0599 23.4678V9.60872C33.0765 3.5888 29.4877 0 23.4678 0ZM16.5382 22.9551C12.9991 22.9551 10.1214 20.0774 10.1214 16.5382C10.1214 12.9991 12.9991 10.1214 16.5382 10.1214C20.0774 10.1214 22.9551 12.9991 22.9551 16.5382C22.9551 20.0774 20.0774 22.9551 16.5382 22.9551ZM26.3289 8.07066C26.2462 8.26912 26.1304 8.45104 25.9816 8.61642C25.8162 8.76527 25.6343 8.88104 25.4358 8.96373C25.2374 9.04642 25.0224 9.09603 24.8074 9.09603C24.3608 9.09603 23.9474 8.93065 23.6332 8.61642C23.4843 8.45104 23.3685 8.26912 23.2858 8.07066C23.2032 7.8722 23.1535 7.65721 23.1535 7.44221C23.1535 7.22721 23.2032 7.01221 23.2858 6.81376C23.3685 6.59876 23.4843 6.43338 23.6332 6.26799C24.0135 5.88761 24.5924 5.70569 25.1216 5.82146C25.2374 5.838 25.3366 5.87108 25.4358 5.92069C25.535 5.95377 25.6343 6.00338 25.7335 6.06953C25.8162 6.11915 25.8989 6.20184 25.9816 6.26799C26.1304 6.43338 26.2462 6.59876 26.3289 6.81376C26.4116 7.01221 26.4612 7.22721 26.4612 7.44221C26.4612 7.65721 26.4116 7.8722 26.3289 8.07066Z" fill="black"/>
</svg>
