<svg width="34" height="34" viewBox="0 0 34 34" fill="none" xmlns="http://www.w3.org/2000/svg">
<path d="M33.0625 23.4579C33.0625 29.4753 29.4753 33.0625 23.4579 33.0625H21.4907C20.5814 33.0625 19.8375 32.3186 19.8375 31.4094V21.8709C19.8375 21.4245 20.2012 21.0443 20.6476 21.0443L23.5571 20.9947C23.7885 20.9782 23.9869 20.8129 24.0365 20.5814L24.6151 17.424C24.6647 17.1264 24.4332 16.8454 24.1191 16.8454L20.598 16.895C20.1351 16.895 19.7714 16.5313 19.7549 16.0849L19.6887 12.0348C19.6887 11.7703 19.9037 11.5388 20.1847 11.5388L24.1522 11.4727C24.4332 11.4727 24.6481 11.2578 24.6481 10.9768L24.582 7.00924C24.582 6.72821 24.3671 6.51332 24.0861 6.51332L19.6226 6.57946C16.8784 6.62906 14.6963 8.87729 14.7459 11.6215L14.8286 16.1676C14.8451 16.6305 14.4814 16.9941 14.0185 17.0107L12.0348 17.0437C11.7537 17.0437 11.5388 17.2586 11.5388 17.5397L11.5884 20.6806C11.5884 20.9617 11.8033 21.1766 12.0844 21.1766L14.0681 21.1435C14.531 21.1435 14.8947 21.5072 14.9112 21.9535L15.06 31.3764C15.0765 32.3021 14.3326 33.0625 13.4069 33.0625H9.60467C3.58729 33.0625 0 29.4753 0 23.4413V9.60467C0 3.58729 3.58729 0 9.60467 0H23.4579C29.4753 0 33.0625 3.58729 33.0625 9.60467V23.4579Z" fill="black"/>
</svg>
